<svg width="9" height="9" fill="none" xmlns="http://www.w3.org/2000/svg"><path d="M.417 4.335c0-1.135.355-2.067 1.066-2.796C2.194.81 3.124.445 4.273.445c1.134 0 2.053.365 2.754 1.094C7.73 2.27 8.08 3.2 8.08 4.335c0 .738-.157 1.404-.472 1.996a3.414 3.414 0 01-1.34 1.388c-.578.337-1.244.506-1.996.506-.76 0-1.435-.169-2.023-.506A3.494 3.494 0 01.889 6.33C.574 5.74.417 5.073.417 4.335zm1.825-2.078c-.515.547-.772 1.24-.772 2.078 0 .838.257 1.531.772 2.078.515.547 1.192.82 2.03.82.83 0 1.495-.27 1.997-.813.505-.547.758-1.242.758-2.085s-.253-1.536-.758-2.078c-.502-.547-1.167-.82-1.997-.82-.838 0-1.515.273-2.03.82zm.028 2.078c0-.592.189-1.076.567-1.45.378-.378.87-.567 1.476-.567.994 0 1.61.495 1.846 1.484H4.888a.623.623 0 00-.212-.301.636.636 0 00-.363-.089c-.255 0-.455.084-.601.253-.141.169-.212.392-.212.67 0 .287.07.517.212.69.146.174.346.26.601.26.333 0 .552-.153.657-.458h1.217C5.972 5.862 5.348 6.38 4.313 6.38c-.606 0-1.098-.191-1.476-.574-.378-.383-.567-.873-.567-1.47z" fill="#fff"/></svg>